<svg xmlns="http://www.w3.org/2000/svg" id="Слой_1" data-name="Слой 1" viewBox="0 0 3110.2 808.7">
  <defs>
    <style>
      .cls-1{fill:#fee080}.cls-2{fill:#0284c9}.cls-5{fill:#0384ca}.cls-7{fill:#f8cf24}.cls-9{fill:#fef1c6}.cls-10{fill:#e3823c}.cls-11{fill:#e3833d}.cls-13{fill:#ea9a34}
    </style>
  </defs>
  <path d="M182.3 718.1l-5.7-5-19.7-19.7c-7-7-13-15-19.5-22.4-5.4-6.4-10-13.3-14.9-20a171.2 171.2 0 0 1-9.8-15.4c-3.7-6.3-7.4-12.6-10.7-19.2a263 263 0 0 1-22.6-63c-2.2-10.3-4.5-20.6-4.7-31.2a45.9 45.9 0 0 0-.7-5.7l-.6-3.7a3.4 3.4 0 0 1 4-4 30.9 30.9 0 0 1 3.6 1c10 3.7 19.8 7.5 29.3 12q16 7.7 31.8 15.9a313.3 313.3 0 0 1 27.8 17 16.5 16.5 0 0 0 3.4 1.5c.2 0 .6-.3.7-.6a1 1 0 0 0 .2-.8 8.6 8.6 0 0 0-1.2-2.4c-2.7-2.9-5.5-5.5-8-8.3-6-6.7-12.2-13.2-17.7-20.2a355.5 355.5 0 0 1-21.2-29.6 325.6 325.6 0 0 1-23.3-44 284.7 284.7 0 0 1-15-46.4c-1.5-5.9-2.6-11.9-3.5-17.9-2.2-13.2-3.6-26.5-6-39.7-1.7-10-2.5-20.3-5-30.2.1-7-2.7-13.8-2.4-20.9 0-1.4.5-2.2 1.3-2a2.7 2.7 0 0 1 2 1.8l.6 1.8 3.5 10 17.8 49.6a15.8 15.8 0 0 0 1.2 2l4.7 2.5 19.7 9.9a283.8 283.8 0 0 1 28.9 17 133 133 0 0 0 6.5 4c.4.3 1.1 0 1.7-.2.2 0 .3-.5.3-.8a30.2 30.2 0 0 0-.3-3.8c-.3-1.6-1-3.1-1.1-4.7-.7-8.3-2.3-16.4-3.8-24.5-.2-1.5-.5-3 .6-4.6a50.6 50.6 0 0 1 4.4 9.5c4 10.7 8.2 21.5 12 32.3 2.4 6.8 6 12.6 11.8 17 7.4 5.6 14 12.2 20.5 18.8a298.8 298.8 0 0 1 29.3 34.2c1.2 1.6 2.3 3 4.2 3.7 1.8 1.3 1.2 3.6 2.3 5.2l3.7 5.5c5 8.2 10.2 16.2 14.9 24.5 6.9 12.3 12.4 25.2 18 38 .6 1.2.8 2.5 1.2 3.7.8 2.4 1.5 4.9 2.6 7.2 5.5 11.9 8.4 24.7 12.1 37.2 2.6 8.5 4.2 17.3 6.3 26a8.5 8.5 0 0 0 1.6 2.3c.2 3.1-.2 6.5.7 9.4 1.2 4 1.2 8 1.5 12.2a5 5 0 0 0 1.7 3.3c-.8 2.6-1.4 3.2-2.9 2.4-7.7-4.3-15.7-8.2-23.2-13-12.6-8-25.5-15.3-37.3-24.6a8.5 8.5 0 0 0-5.3-1.7 2.7 2.7 0 0 0-2.2-1.6 2.2 2.2 0 0 0-.4-.8.9.9 0 0 0-.6-.1c-.3.5 0 .9.8 1a2.6 2.6 0 0 0 1.8 2.2 9 9 0 0 0 2.8 4.9c4.9 5 9.5 10.2 13.9 15.7 5.6 7 10.9 14.1 16 21.3 9.9 13.8 17.7 28.8 25.6 43.7 2.3 4.2 4 8.6 5.8 13 3.7 8.8 7.7 17.5 10.8 26.5a375.5 375.5 0 0 1 16 56.9 8.5 8.5 0 0 0 1.5 2.4 46.2 46.2 0 0 0 .3 6.6c1 5.3 2.2 10.6 3.4 15.8-2 .3-3.8-.7-5.5-1.6a749.7 749.7 0 0 1-60.2-33.6c-3.4-2.2-7-4.1-10.7-6-.4-.3-1.1.2-1.7.5-.1.1-.2.6-.1.9a4 4 0 0 0 .6 1.7c5.2 5.3 9.8 11 14.8 16.4 9.9 10.5 18.1 22.2 26.5 33.8a334.7 334.7 0 0 1 24.8 42.1c4 8 7.2 16.4 10.7 24.6a368.9 368.9 0 0 1 18.9 57.2l3.4 14.9a16.6 16.6 0 0 0 1.7 3.3c.2 2.7 0 5.6.7 8.2a35.6 35.6 0 0 1 1.1 12.7 10.1 10.1 0 0 1-5.5-1.1c-3.1-1.6-6.3-3.1-9.4-4.8l-28.5-15.8c-12-6.6-23.5-14-35.1-21.4a586 586 0 0 1-43.7-31c-6.8-5.3-13-11.4-19.7-16.8-11-8.8-20.7-19-30.4-29.1-6.4-6.7-12-14-18.2-21-5.5-6.2-10-13.2-15-20-3.9-5.3-7.4-11-10.8-16.8a266.6 266.6 0 0 1-12.8-23.6c-9.3-20-16.6-40.7-20.7-62.5-1.6-8.5-3.4-16.9-3.8-25.5 0-1.6-.6-3.1-.8-4.7-.2-2.6-.5-5-.6-7.6 0-2 1.3-3.1 3-2.7a39.8 39.8 0 0 1 4.6 1.4c9.7 4 19.5 8 29 12.4 10.8 5 21.3 10.4 31.8 15.8 4 2 7.8 4.2 11.8 6.3a6.3 6.3 0 0 0 3.5 2.9 1.6 1.6 0 0 0 2-2.2 5.3 5.3 0 0 0-3.5-3zm65.3 51.9c.3.6.4 1.8 1.5.6l-1.3-.8a2.6 2.6 0 0 0-.4-.8c-.1-.2-.6-.2-.7-.1-.3.6 0 1 .9 1.1zm-69-211.4a2.6 2.6 0 0 0 .2.8l.5.2-.8-.8a2.7 2.7 0 0 0-.4-.8h-.6zm15.3 169.1a10 10 0 0 0-2 0c0-1.3-.2-2.5-1.5-3-.4 0-1 .4-1.5.6v.9c.7 1.2 1.9 1.4 3 1.5l2 1.8a2.9 2.9 0 0 0 .4.8c1 .8 2 1 2 .3a1.9 1.9 0 0 0-.3-1.5 13.2 13.2 0 0 0-2.1-1.4z" class="cls-1" transform="translate(-69.5 -181.2)"/>
  <path d="M1101.6 539l6.7-7.6a194.4 194.4 0 0 1 45.8-39c4.1-2.5 8.4-4.7 12.6-7a10.2 10.2 0 0 1 5.6-1.2c26.2 1.2 50.4 8 70.8 25.4a117 117 0 0 1 26.2 32.9 153.6 153.6 0 0 1 15 40.3 232 232 0 0 1 5.8 48.5c.2 8 .3 16 0 24a229 229 0 0 1-11.4 64 151.2 151.2 0 0 1-22.6 43.1 134.3 134.3 0 0 1-62.6 45.8 174.7 174.7 0 0 1-47.8 9.9c-3.8.3-7.6.7-11.5.7-6 0-12.1.2-18.2-.2-8.3-.5-16.6-.8-24.8-2.3a55 55 0 0 0-7.6-.4 2.8 2.8 0 0 0-2 1.8c0 1.3-.2 2.6-.1 3.8l1.8 78.7 1 37.4v4.8a3.1 3.1 0 0 1-3 3l-4.9.1H975.6c-2.5 0-5 .4-7.6-1.4-.1-1.7-.4-3.6-.4-5.5l1.3-58.5.7-36.5c0-2.2 0-4.4.2-6.7a3.3 3.3 0 0 1 2-3l7.2-2.7a121.7 121.7 0 0 0 28.6-16.1c.6-2.3 1.4-4.7 1.8-7.2 4-22.7 8-45.4 11.5-68 1.9-11.8 3-9.2-6.4-17l-8.8-7.3a5.5 5.5 0 0 0-5.4-1l-3.7 1.1c-5.6 1.4-6.3.5-6.2-4.7l1.3-31.7c0-1.6.3-3.2.4-4.8l2.5-57.5 1.5-37.4a139.4 139.4 0 0 0-3.2-34.3 99.7 99.7 0 0 0-20.1-42l-3-3.7c-1-1.2-.1-3.2 1.8-3.4l5.7-.5 50.8-3.6 42.1-2.8 4.8-.1c2.5 0 3.7 1 3.7 3.2l.1 7.7v32.6a24.3 24.3 0 0 0 .6 4.8c0 .5.8 1 1.3 1.2a4.5 4.5 0 0 0 1.9.3h19zm-22.4 48c0 2-.3 3.6-.3 5.2 0 28.1 0 56.3.2 84.4.2 20.8 1 41.5 1.4 62.3.2 12.3-.7 10 10.5 13a94.2 94.2 0 0 0 38 2.8 51.4 51.4 0 0 0 38.7-25.3 75.4 75.4 0 0 0 7.5-17.6 148.8 148.8 0 0 0 5.4-35.9c.5-13.7.5-27.5-1.5-41.1a138 138 0 0 0-4.6-21.6 67.6 67.6 0 0 0-7-15.7 49.3 49.3 0 0 0-28.9-22.4 62.6 62.6 0 0 0-53.3 7.6c-1.9 1.1-3.6 2.5-6 4.3zM1665.5 809.9c-1.2 0-2.8.3-4.4.3h-79.6l-3-.1c-2-.1-3.2-1.4-3.4-3.7l-.1-2-.1-1.9-2.6-73.8c-.6-17.3-1.5-34.5-1.9-51.8-.5-18.5.3-37 1.2-55.6 0-2.2.3-4.5.4-6.7l2.3-72 1.8-47c0-1 0-1.8.2-2.8a3.1 3.1 0 0 1 2.6-2.4l4.8-.4 72.9-2.6a60 60 0 0 1 6.7.1 2 2 0 0 1 1.3 1.3 8 8 0 0 1 .4 2.8l-1.4 49.8-1 33.6-2 59.5v7.6a2.8 2.8 0 0 0 3.1 2.9h22.1a3.4 3.4 0 0 0 3-2c1.2-2.3 2.2-4.6 3.3-7l60.6-138.9 3-6.6c2.4-1.6 4.7-1.2 6.9-1.2H1869a38.5 38.5 0 0 1 5.7.5 2 2 0 0 1 1.2 1.2 8.7 8.7 0 0 1 .4 2.9l-1.7 53.7c0 2.5-.3 5-.4 7.6-1 28.5-1.6 57-2.8 85.4-.7 16-.7 32 .1 48 1.2 23 1.8 46 2.7 69l1.9 45a36.4 36.4 0 0 1-.3 5.7c0 .5-.8 1-1.3 1.3a1.6 1.6 0 0 1-.9.3l-2.8.1h-104.6a14.6 14.6 0 0 1-3.8-.3 2.1 2.1 0 0 1-1.7-2c.2-7 .3-14.1.6-21.1l1.2-24c1.1-19.5 2.3-39 3.2-58.4.5-11.5.6-23 .8-34.6l.3-20.1-.1-2.9a2.8 2.8 0 0 0-2.6-2.4l-22-.1a4.2 4.2 0 0 0-3.7 2.6l-3.2 7L1670 802c-1.2 2.7-2 5.6-4.5 7.9zM2575.3 688.6a149.8 149.8 0 0 1 .4-18.2 313.9 313.9 0 0 0 0-32.6c-.6-15.4-.7-30.7-1.1-46.1l-2.1-84.4c-.3-11.7-1.1-11 10.4-11.7l48.8-3.5 44-2.8a18.5 18.5 0 0 1 4.8.2 2.7 2.7 0 0 1 1.8 1.9c.2 3.1.3 6.3.3 9.5V676.6a88.7 88.7 0 0 0 3.4 22.7 37.9 37.9 0 0 0 7 13.6c6.5 7.8 15 11.8 24.9 12.9a59.5 59.5 0 0 0 41.9-10.2c2.8-2 6-3.8 8.3-6.4.9-3.6.4-7 .4-10.6v-190l.1-8.7c0-2.2 1.2-3.4 3.6-3.7a95 95 0 0 1 4.8-.4l25.8-1.9 41.2-2.6 26.8-2 4.8-.1a3 3 0 0 1 3.2 2.8v2.8c-.1 2.3-.3 4.5-.3 6.8-1 30.3-1.8 60.7-2.9 91-.8 25.7-2 51.2-2.8 76.8a2705 2705 0 0 0-1.1 43.2 55.1 55.1 0 0 0 .7 10.5 20.7 20.7 0 0 0 12.8 16.7 23.8 23.8 0 0 0 6.4 1.5c2.6.3 5.1.2 7.7.2.6 0 1.7 1.4 1.6 2.1l-.4 4.8-7.3 42.5a39.2 39.2 0 0 1-2.4 9.5 110.3 110.3 0 0 1-26.7 12.2 122.4 122.4 0 0 1-28.3 5 25.6 25.6 0 0 1-9.4-1.3 59.9 59.9 0 0 1-28.4-18.8 99 99 0 0 1-15.7-26.3c-1.5-3.5-2.8-7.1-4.1-10.7-1.5-3.9-2-4.2-6.4-4.3h-3l-14.3.3c-4.3 2.5-6.9 6.6-10.2 10a284.7 284.7 0 0 1-26.9 24.7 139.5 139.5 0 0 1-39.2 21.7 24.6 24.6 0 0 1-8.5 1.5 138.4 138.4 0 0 1-41.5-6.2 80.6 80.6 0 0 1-30.8-17.2 4.4 4.4 0 0 1-1.5-4.3 15 15 0 0 1 .4-1.9c3.4-9.8 4.2-20 4.5-30.2a99.6 99.6 0 0 0-3.7-30.4 70.5 70.5 0 0 0-18-31.3l-3.8-4.3zM2149.7 652.3l1-38.4 3-81.5c.4-8.6.5-17.3.7-26l.3-7.6c.2-2.6 1-3.5 3.4-3.8l17.2-1.4 45-3.3c7.3-.5 14.7-.8 22-1.1a3 3 0 0 1 3.1 2.9l.2 6.7v36.5c0 2.2 1.4 3.6 3.5 3.7l9.6.1c9.8 0 8 1 15.1-6 20.2-19.7 43-35.2 69.3-45.6a34.5 34.5 0 0 1 15-2.3 157 157 0 0 1 32.2 4.5 92.6 92.6 0 0 1 23 9.4 65.5 65.5 0 0 1 32.8 48.3 123.9 123.9 0 0 1 1.4 24.9c-1 28.4-2 56.9-2.8 85.3-.3 7-.2 14.1 0 21.1.4 14.8 1 29.5 1.5 44.2l2.8 79.5.1 3.9c0 2.3-1.2 3.7-3.2 3.8h-107.5a29.1 29.1 0 0 1-4.8-.3 2 2 0 0 1-1.3-1.3 8.7 8.7 0 0 1-.3-2.8l1-28.8 3.1-76.7 2.4-68v-9.7a70.3 70.3 0 0 0-3.7-19.7 53.7 53.7 0 0 0-3.3-8 39.8 39.8 0 0 0-27-21 61.4 61.4 0 0 0-29.5.8 87.5 87.5 0 0 0-27 12 4.7 4.7 0 0 0-2.3 4V641.5c-.3 21.4.4 42.8 1.1 64.3.8 22 2 44 2.8 66.1l1 31.7-.1 3.8a2.7 2.7 0 0 1-2.3 2.6l-4.8.2h-81.6a42 42 0 0 1-5.7-.4 2 2 0 0 1-1.3-1.3 17.7 17.7 0 0 1-.5-3.8l-2.2-58.5-2.8-67c-.2-3.6-.3-7-.3-10.6 0-5.4.3-10.9.4-16.3z" class="cls-2" transform="translate(-69.5 -181.2)"/>
  <path d="M995.5 742.5l-1.3 10.2-7.6 44.4a7 7 0 0 1-3.7 5.2 112.3 112.3 0 0 1-29.3 11.5 200.3 200.3 0 0 1-20.8 3.5c-5.6.7-10.9-.7-16-2.3a55.2 55.2 0 0 1-28.8-21.3 78 78 0 0 1-9.5-17.7c-1.1-3-2.3-6-3.6-8.9 0-.2-.4-.4-.7-.6-6.7-1-10.8-1-19.3-.2l-8.2 9a169 169 0 0 1-45 35.4c-3.7 2-7.6 3.6-11.2 5.5a18.5 18.5 0 0 1-9.3 1.8 148.4 148.4 0 0 1-29.4-4.3 5.6 5.6 0 0 1-3.6-2.9l-3.3-5.8-59.4-110.7-3.8-7.7a62.7 62.7 0 0 1 33.2-40.4 96.4 96.4 0 0 1 25.3-8.7A348 348 0 0 1 761 634c11.7-1.7 23.4-3 35.1-4.6l35.2-4.8 21-2.7 11.3-1.9a2.7 2.7 0 0 0 2.1-2.7c0-8 .2-16-.1-24a52.8 52.8 0 0 0-3-15 34.3 34.3 0 0 0-26.9-23.4 82.8 82.8 0 0 0-26.7-1.2c-20.5 2.1-40 8-59 15.9-9.4 3.9-18.6 8.3-28 12.6l-4.3 2a2.1 2.1 0 0 1-3-1.5l-1.4-8.5-2.5-14.2a10.7 10.7 0 0 1 1.2-7.3l15.4-28.7 12.7-23.7a10.8 10.8 0 0 1 7-5.9 398 398 0 0 1 37.3-8.7 346 346 0 0 1 45.7-5.2 244.5 244.5 0 0 1 32.6.5 219.2 219.2 0 0 1 33.2 4.7 127.9 127.9 0 0 1 32.3 12 94.5 94.5 0 0 1 15 10.2 75.5 75.5 0 0 1 26.6 45.4 102 102 0 0 1 1.8 20 597 597 0 0 1-1.6 47l-2.6 61.3-1.5 29.7a41 41 0 0 0 1.8 15.1 20.8 20.8 0 0 0 23 14.8c1.5 0 3.2-.2 4.8 1.2zm-129.6-48.4v-29.7a23.7 23.7 0 0 0-.6-4.7 1.8 1.8 0 0 0-1.3-1.1 71.7 71.7 0 0 0-8.5.4l-40.8 5.7a83 83 0 0 0-9.4 1.8 31.1 31.1 0 0 0-24 24.6 55.8 55.8 0 0 0 .2 26.5 33.4 33.4 0 0 0 26.1 26.4 57.4 57.4 0 0 0 24.7 0 78.4 78.4 0 0 0 31-14.4 5.6 5.6 0 0 0 2.6-4.8V694z" class="cls-2" transform="translate(-69.5 -181.2)"/>
  <path d="M401.8 491.6q59.2-2.4 118-4a31.2 31.2 0 0 1 4 .4c.8 1.9 1.6 3.6 2.2 5.4l9.5 29.2a116.7 116.7 0 0 0 4.4 11.6l26.1 56.6 3.1 6.2c1-.7 2-1.1 2.4-1.9 1.5-2.7 3-5.6 4.3-8.5l45-90.1c1-2.3 1.6-5 5-6.6h83.5c2 0 3.8.1 5.8.3.7 0 1.5 1.5 1.1 2.2-.9 2-1.7 4.1-2.7 6.1l-35.8 66.8-41.3 77-3 6 3.5 7 74.3 138.6c2 3.6 4 7.3 5.8 11 .3.8 0 1.8 0 2.7a13.5 13.5 0 0 1-2 .4l-39.3 2.4-43 2.9a5077 5077 0 0 1-32.6 2 3.7 3.7 0 0 1-3.9-2.3 22 22 0 0 1-1-2.6c-.8-2.4-1.7-4.8-2.4-7.3-8.7-27.8-21-54.3-32.6-81l-7.3-16.6a4.7 4.7 0 0 0-2.9-2.8 45.1 45.1 0 0 0-2.4 3.8c-12 23-24.1 45.9-35.9 69-4 7.6-7 15.7-10.5 23.6-1.6 3.5-2.7 7.2-5.2 10.6a43.8 43.8 0 0 1-4.5.4H408a15 15 0 0 1-3.8-.5 1.7 1.7 0 0 1-.9-1.5 13.7 13.7 0 0 1 1.3-3.5l12.9-24.6 62.9-119.8c5.4-10.3 5.5-7.7 0-18.2l-74.2-138.8a201 201 0 0 1-4.4-8.5c-.3-.7 0-1.8 0-3zM3040 766c-2.9 2.1-4.9 5-7.3 7.6a181.7 181.7 0 0 1-38 32.1 154.2 154.2 0 0 1-21.3 11 13.3 13.3 0 0 1-5.5 1.2 134 134 0 0 1-48.6-10c-.3 0-.5-.3-.8-.4a3.8 3.8 0 0 1-2.4-3.8c.2-2 .3-3.9.6-5.7l6.5-37.9 4.6-26.4a24.7 24.7 0 0 0 0-4 134 134 0 0 0-12.3-10.7c-6.9-5.6-5.2-5.6-13.6-3.2a22.7 22.7 0 0 1-3.8.5c-.5.1-2-1.1-2-1.7a32.6 32.6 0 0 1-.3-3.8l2-58.5a16 16 0 0 1 .5-3.9 4.7 4.7 0 0 1 1.5-2.2 17.4 17.4 0 0 1 3.4-1.9 111.1 111.1 0 0 1 31.3-8.7q26.5-3.8 53.2-7.3l50.4-6.5 1-.1c12.8-2.6 11.3.7 11.4-13.4a111.6 111.6 0 0 0-1.4-22 57.5 57.5 0 0 0-2.5-9.2 34 34 0 0 0-25.8-22 82.3 82.3 0 0 0-27.7-1.4c-18.6 2-36.3 7.1-53.7 13.8-11 4.3-21.7 9.3-32.4 14.4a23.3 23.3 0 0 1-4.4 1.5 1.7 1.7 0 0 1-1.4-.8 7.1 7.1 0 0 1-.5-2.8l1.6-54.7c.2-5.1.6-10.2.5-15.3 0-3.7 1.2-5.8 4.9-7.2 10.2-3.7 20.5-7.1 31-10a340.3 340.3 0 0 1 54.6-10.4c20.7-2.2 41.4-2.8 62.2-.5a174 174 0 0 1 43.9 10 97.6 97.6 0 0 1 33.1 20.6 74.9 74.9 0 0 1 21.9 41.8 102.8 102.8 0 0 1 1.9 22.9c-.3 5.7-.3 11.5-.5 17.3-.5 12.1-.9 24.3-1.5 36.4l-3 55.6c-.4 9.6-.6 19.2-.8 28.8a30.8 30.8 0 0 0 2.3 13 20.1 20.1 0 0 0 18.4 13.2h5.8a2.5 2.5 0 0 1 2.7 3c0 1.3-.1 2.6-.4 3.8L3173 786l-1.5 9.5a9.5 9.5 0 0 1-5.2 7.5 119.1 119.1 0 0 1-28.6 10.8c-6.9 1.7-14 2.4-20.9 3.4-5.2.8-10.2-.7-15-2.1a55.4 55.4 0 0 1-31.2-24.3 91.7 91.7 0 0 1-8.4-17.2c-3.2-8.4-1.8-8-11.5-8-3.6.1-7.1-.2-10.6.6zm10.3-39.3l.2-3.8v-58.4l-.1-3.8a3.2 3.2 0 0 0-2.6-2.5l-8.6.7-40.8 5.8a74.3 74.3 0 0 0-9.4 1.8 30.5 30.5 0 0 0-22.7 22.4 56 56 0 0 0-.5 27.5 44 44 0 0 0 2.6 8.2 32.3 32.3 0 0 0 20.8 18.6 55.5 55.5 0 0 0 26.5 1 77.2 77.2 0 0 0 32.8-15.2 12.9 12.9 0 0 0 1.8-2.3zM1438 626.8c0-2.4.2-4.3.1-6.2-.3-15.4-.8-30.7-1.2-46-.3-13.2-.5-26.3-.9-39.4l-1-35.5V492a2.8 2.8 0 0 1 2.5-2.5l2-.1h101.7l8.6.3a2 2 0 0 1 1.3 1.3 16.7 16.7 0 0 1 .3 3.8l-1 33.6-.9 22-2.6 83.4-1.1 26a316.8 316.8 0 0 0 .7 32.5l.4 6.7 2.6 72 1.3 31.6a36.5 36.5 0 0 1-.3 5.7c0 .5-.7 1-1.2 1.4a1.8 1.8 0 0 1-1 .2l-2.8.2h-106.6a9.6 9.6 0 0 1-2.8-.2 2.3 2.3 0 0 1-1.8-2 19.7 19.7 0 0 1-.2-3l1-26.8 1.2-24.9 3-66.1a37.4 37.4 0 0 0 0-3.8c0-1.1-.8-1.7-1.7-2a4.8 4.8 0 0 0-1.8-.4h-18.3a7.6 7.6 0 0 0-5.2 2c-3.6 3.2-7.2 6.4-11 9.4a188.8 188.8 0 0 1-40.9 24.8 24.3 24.3 0 0 1-12 2.4c-12.8-1-25.6-1.8-38-5.1a9.8 9.8 0 0 1-2.7-1 2 2 0 0 1-.8-1.6 41.3 41.3 0 0 1 .9-5.7c5.6-24.1 7.6-48.6 6.9-73.3-.7-22.1-3-44-9.2-65.4a166.1 166.1 0 0 0-27.8-56.5 194.7 194.7 0 0 0-17.4-19 1.1 1.1 0 0 1 0-1.8c.2-.2.4-.5.6-.5a10 10 0 0 1 1.9-.3H1349.2a65 65 0 0 1 6.7.4 2 2 0 0 1 1.3 1.2 15 15 0 0 1 .4 3.8l-1.4 60.5-.8 39.3a50 50 0 0 0 4 20.6 37.4 37.4 0 0 0 34 24c7 .6 14-1 20.7-2.8a136.7 136.7 0 0 0 23.9-9.5z" class="cls-2" transform="translate(-69.5 -181.2)"/>
  <path fill="#fdd630" d="M330 813.8c-1-5.3-2.3-10.5-3.3-15.8a46.2 46.2 0 0 1-.3-6.7l-.1-19.2a37.2 37.2 0 0 0-1-8.5c-1.1-4.7-1.2-26.7 0-31.4a41.7 41.7 0 0 0 1-9.5l.2-10.6a22 22 0 0 1 .4-5.7 47.6 47.6 0 0 0 1.5-9.4c.3-3.4 1.3-6.8 1.7-10.3 1-7.3 2.4-14.4 3.9-21.6 3.3-16 8.5-31.3 13.8-46.7 1.7-4.8 3.8-9.4 5.8-14.1 2.2-5.3 4.7-10.5 6.8-15.8.6-1.4.5-3.1.7-4.7a2.6 2.6 0 0 0 1.8-2 7 7 0 0 0 1.4-1.2c.4-.6.1-1.2-.7-1.3l-.5.7a15.7 15.7 0 0 0-.2 1.8 2.6 2.6 0 0 0-2 1.8c-3.9 2.4-6.6 5.9-9.4 9.4-1.5 2-3.1 4-4.8 5.9-5 5.4-10.6 10.2-14.7 16.4a19.7 19.7 0 0 1-2.6 2.7l-21.6 21.7a51.3 51.3 0 0 1-4.5 3.5 5 5 0 0 1-1.6-3.3c-.3-4-.3-8.1-1.6-12.1-.9-3-.5-6.3-.7-9.5l.1-11.5c0-4.4-.1-8.8-1.3-13.2a27.9 27.9 0 0 1 0-14.3 48.1 48.1 0 0 0 1.3-11.4c.3-7.3-.6-14.6 1.7-21.8.8-2.4-.2-5.3.6-7.6 2-5.5 1-11.5 3.3-16.8 1.8-11.7 5.1-23 8.9-34.2 1-3.3 3-6.3 3-10l6.8-15.8a287 287 0 0 1 32.4-56.5l4.5-6.2c.6-.8 1-1.6 1.8-3l.5-9c.3-6.7.6-13.4 1.3-20.1.7-7 .6-14 1-21 .1-2.6.5-5.2.8-7.7a34.3 34.3 0 0 1 .9-3.6c1.7 0 1.2 1.2 1.3 1.8q3.3 20.8 6.4 41.7c0 .2.3.7.5.7a3.2 3.2 0 0 0 1.8-.1 10 10 0 0 0 2.1-2c11.4-12 23.1-23.8 36-34.5 1.2-1 2.3-2.2 3.2-3.1a66.7 66.7 0 0 0 2-14.5l2.6-44c.5-7 1.3-14 2-21l.8.8c.7 3.1 1.5 6.2 2 9.4 1.5 10.4 2.9 20.9 4.5 31.3 2.2 14.5 4.7 29 7 43.5a217.7 217.7 0 0 1 2.8 24.7c.3 7 1.4 14 .7 21-1 9.3-1.2 18.5-2.5 27.7A271.6 271.6 0 0 1 430 461a34.3 34.3 0 0 1-2.3 4.8c-3.6 1-6.8.7-10 .8l-46 1.8-1.9.2a3 3 0 0 0-2.5 2.4 225 225 0 0 0-.2 8.7c0 2.3 1.1 4.3 2.2 6.3l11.1 21.2c6 11 12 22 17.8 33l40.6 76.1 16.3 30.5c1.7 3 2 5.7.2 9-4 6.9-7.8 14-11.7 20.9q-2.4 4.2-5 8.2a24.1 24.1 0 0 0-3.3 7.9 24.6 24.6 0 0 1-5.3 10c-3.2 0-5.3 2-6.8 4.5a173 173 0 0 1-9.9 13.9c-4 5.2-7.5 10.8-12.2 15.5a6.2 6.2 0 0 0-1.7 4.3l-2 2.2a6.1 6.1 0 0 0-3.7 4 5.5 5.5 0 0 0-.2 1.8c-3.5 1.7-6 4.7-8.1 7.7-3.2 4.5-7 8.2-10.7 12.1-3.3 3.5-6.8 6.7-9.3 10.8a16.5 16.5 0 0 1-2.6 2.8l-28.9 29a7.7 7.7 0 0 1-4 2.5z" transform="translate(-69.5 -181.2)"/>
  <path d="M2125.3 650.3c-1 22.3 0 45 1.2 67.6l.1 2 2.9 82.3-.2 5.8a3 3 0 0 1-1.8 2l-4.8.2h-103.5c-1.3 0-2.6 0-3.9-.2a2.7 2.7 0 0 1-2.5-2.4 20 20 0 0 1 1.5-9.4l.9-1.7a95.5 95.5 0 0 0 8.8-40.9c0-8.6 0-17.2-2.2-25.7l-3.1-11a20.8 20.8 0 0 1-1.2-7.5l.2-2.9c1.4-30 .1-60-.7-90l-1.4-58.6c-.4-17.9-1-35.7-1.5-53.6v-6.8a3.2 3.2 0 0 1 3-3l9.6-.9 49.7-3.4 47.9-2.9a20.8 20.8 0 0 1 4.7.4 2 2 0 0 1 1.2 1.3 14.8 14.8 0 0 1 .4 3.7c-.3 7-.8 14-1 21l-.9 32.7c-.9 25.2-2 50.4-2.8 75.7l-.7 26.2z" class="cls-2" transform="translate(-69.5 -181.2)"/>
  <path fill="#ffc760" d="M317 477.5c0 3.6-2 6.7-3 10a204.2 204.2 0 0 0-9 34.1c-2.3 5.4-1.3 11.4-3.2 16.9-.9 2.3.1 5.2-.6 7.5-2.4 7.2-1.5 14.6-1.7 21.9a48.1 48.1 0 0 1-1.2 11.4 27.9 27.9 0 0 0-.1 14.2 52 52 0 0 1 1.3 13.3l-.1 11.5a8.5 8.5 0 0 1-1.6-2.3c-2-8.7-3.7-17.5-6.3-26-3.7-12.5-6.6-25.3-12.1-37.2-1-2.3-1.7-4.8-2.6-7.2-.4-1.2-.6-2.5-1.1-3.7-5.7-12.8-11.2-25.7-18.1-38-4.7-8.3-9.9-16.3-15-24.4-1-2-2.3-3.8-3.6-5.6-1-1.6-.5-3.9-2.3-5.1-1.7-7.5-3.2-15-5-22.4a275.7 275.7 0 0 1-5.4-28.3c-.9-6.6-2.3-13.2-3-19.8-.6-6.4-.4-12.8-.6-19.2-.4-10 1-19.7 3-29.5 1.2-6.2 1.9-12.6 3-18.9 1.3-8.2 1.3-16.6 2.3-24.8 1.4-11.2 1.3-22.3 1.6-33.5.6-26.6.2-53.1-.1-79.7v-11.5c1.4 0 1.3.9 1.5 1.6 2.4 9.6 4.5 19.3 7.1 28.8A666.8 666.8 0 0 0 298 346.5a34 34 0 0 1 4 10.7c2 10 4.2 20 5.5 30.1.8 6.7 2.4 13.2 3 19.9.7 8.6 2.5 17 2.6 25.7 0 3.2.7 6.4 1 9.6s.5 6.3.6 9.5c.3 6.7.4 13.4.5 20.2a8 8 0 0 0 1.9 5.3z" transform="translate(-69.5 -181.2)"/>
  <path d="M2067.8 423.2c-6.6-.6-13.3-.7-19.9-2.4a43 43 0 0 1-33-32.5 83 83 0 0 1 1.2-48.3 52.5 52.5 0 0 1 40.9-36.3 79.6 79.6 0 0 1 33.3-.3 56 56 0 0 1 12.7 4 42.4 42.4 0 0 1 20.9 20.4 51.5 51.5 0 0 1 3.5 8.9 79.2 79.2 0 0 1 2.7 30.3c-.6 5.4-1.2 10.8-2.7 16a53.4 53.4 0 0 1-47 39.3c-4.2.5-8.4.6-12.6.9z" class="cls-5" transform="translate(-69.5 -181.2)"/>
  <path fill="#f9d01b" d="M355.1 988.9A35.6 35.6 0 0 0 354 976c-.8-2.5-.5-5.4-.7-8.2l-.1-14.3a19.8 19.8 0 0 0-.5-5.7c-1.3-3.7-1.2-7.5-1.2-11.3v-25.8c0-2.2-.2-4.6.4-6.6 1.4-4.4 1.2-8.8 1.4-13.3 0-2.8-.4-5.9.3-8.5 2-6.5 1-13.4 3.3-19.7.3-8.6 3.5-16.8 4.4-25.3 1.6-3.8 1.3-8.2 3.6-11.8h1.8l.7 6.7a3 3 0 0 0 2.6 2.3l2.9.2h94.7c3.5 0 7 .3 10.5.5l.2 2.4c-.3 2.6-1.9 4.7-3.1 6.9a479.6 479.6 0 0 1-36.8 56 664.7 664.7 0 0 1-42.4 50.6 954.8 954.8 0 0 1-37.6 38.3 2.2 2.2 0 0 1-3.3-.6z" transform="translate(-69.5 -181.2)"/>
  <path d="M2471.7 759.8c-.3-12.4-.4-24.9-1-37.3-.2-4.3 1.4-7.3 4.2-10.1 8.2-8.3 18-13 29.3-15.3a80.3 80.3 0 0 1 31.4-.2 48 48 0 0 1 27.5 14.4 46.9 46.9 0 0 1 11 21 84.2 84.2 0 0 1-.6 43.6 52.2 52.2 0 0 1-43.4 39.6 84.6 84.6 0 0 1-37-1.4 50.7 50.7 0 0 1-15.6-7.1c-2.9-2-4.5-4.2-4.4-8 .1-4.7-.1-9.5-.3-14.3l-1-24.8zM1899.1 759c-.4-8.6-1-17.2-1.3-25.9-.3-4.8-.2-9.6-.7-14.3-.4-4 1-6.7 4-9.2a57.3 57.3 0 0 1 25.6-12.4 79.3 79.3 0 0 1 33.3-.1 45.3 45.3 0 0 1 36.8 33.6 76.2 76.2 0 0 1 2.7 28.5c-.6 5.7-1 11.4-2.7 17a53.5 53.5 0 0 1-47.6 39.8 104.7 104.7 0 0 1-24-.1 52.8 52.8 0 0 1-21.6-7.2 5.3 5.3 0 0 1-2.8-4.7l-2-45z" class="cls-5" transform="translate(-69.5 -181.2)"/>
  <path d="M366.7 825.6H365c1.4-5.2 2.4-10.4 4.1-15.5a325 325 0 0 1 19-46.5l4.7-9.3a9.7 9.7 0 0 0 .9-5.5h1.9c2.2-1.4 2-3.6 2-5.8v.1a3 3 0 0 0 2-2.2 6.2 6.2 0 0 1 1.7-4.3c4.7-4.7 8.2-10.3 12.2-15.5 3.5-4.5 6.8-9.1 9.8-14 1.6-2.4 3.7-4.3 6.9-4.3a56.1 56.1 0 0 1-2.2 5.2l-48.4 92c-4.4 8.5-9.2 16.7-12.8 25.6z" class="cls-7" transform="translate(-69.5 -181.2)"/>
  <path fill="#fdd93f" d="M471.7 464.8h-7.8c-1.3 0-2.3-.6-2.2-1.3s.2-1.3.6-1.7a200.5 200.5 0 0 1 19.2-15.5 2.1 2.1 0 0 1 3.1 1l3 13.9a2.8 2.8 0 0 1-2.8 3.1l-13.1.5z" transform="translate(-69.5 -181.2)"/>
  <path d="M182.3 718.1a5.3 5.3 0 0 1 3.4 3 1.6 1.6 0 0 1-1.9 2.2 6.3 6.3 0 0 1-3.5-3z" class="cls-9" transform="translate(-69.5 -181.2)"/>
  <path d="M70.2 285.6a4.6 4.6 0 0 1 .6 1.6c0 .5-.5 1-.7 1.5a4.4 4.4 0 0 1-.6-1.6c0-.5.4-1 .7-1.5z" class="cls-1" transform="translate(-69.5 -181.2)"/>
  <path d="M478.3 837.7l-.2-2.4c1.9.6 1.9.7.2 2.4z" class="cls-7" transform="translate(-69.5 -181.2)"/>
  <path d="M393.6 748.8a9.7 9.7 0 0 1-.9 5.5l-4.6 9.3a325 325 0 0 0-19 46.5c-1.7 5-2.8 10.3-4.2 15.5-2.3 3.6-2 8-3.6 11.8-.8 8.5-4 16.7-4.3 25.3-2.4 6.3-1.4 13.2-3.3 19.7-.8 2.6-.3 5.7-.4 8.5-.1 4.5 0 8.9-1.4 13.3-.6 2-.4 4.4-.4 6.6v25.8c0 3.8 0 7.6 1.2 11.3a19.8 19.8 0 0 1 .5 5.7V968a16.6 16.6 0 0 1-1.6-3.3l-3.4-14.9a368.9 368.9 0 0 0-18.8-57.2c-3.6-8.2-6.7-16.6-10.8-24.5a334.7 334.7 0 0 0-24.7-42.1c-8.4-11.6-16.7-23.4-26.6-33.9-5-5.3-9.6-11-14.7-16.3a4 4 0 0 1-.7-1.7c0-.3 0-.8.2-.9.5-.3 1.3-.8 1.6-.6 3.6 2 7.3 3.9 10.8 6 12 7.5 24.2 14.3 36.5 21.1 7.8 4.3 15.6 8.6 23.7 12.6 1.7.8 3.4 1.8 5.4 1.6a7.7 7.7 0 0 0 3.9-2.6l28.9-29a16.5 16.5 0 0 0 2.6-2.8c2.5-4 6-7.3 9.3-10.7 3.7-4 7.5-7.7 10.7-12.2 2-3 4.6-6 8.1-7.7z" class="cls-10" transform="translate(-69.5 -181.2)"/>
  <path d="M361.1 583.8c-.2 1.6-.1 3.3-.7 4.7-2.2 5.3-4.6 10.5-6.9 15.8a384.2 384.2 0 0 0-19.6 60.9c-1.5 7-2.9 14.2-3.8 21.5-.4 3.4-1.4 6.8-1.7 10.3a47.6 47.6 0 0 1-1.5 9.4 22 22 0 0 0-.4 5.7l-.2 10.6a41.7 41.7 0 0 1-1 9.5c-1.2 4.7-1.1 26.7 0 31.4a37.2 37.2 0 0 1 1 8.5v19.2a8.3 8.3 0 0 1-1.4-2.4 377.9 377.9 0 0 0-16-56.8c-3.2-9-7.1-17.7-10.8-26.5-1.8-4.4-3.6-8.9-5.8-13-8-15-15.8-30-25.6-43.7a473.6 473.6 0 0 0-16-21.3c-4.4-5.5-9-10.7-14-15.8a9 9 0 0 1-2.7-4.8l.6-.6a8.5 8.5 0 0 1 5.3 1.7c11.8 9.2 24.7 16.6 37.3 24.6 7.5 4.8 15.5 8.7 23.3 13 1.4.7 2 .2 2.8-2.4a51.3 51.3 0 0 0 4.4-3.6l21.7-21.7a19.7 19.7 0 0 0 2.6-2.7c4.1-6.2 9.7-11 14.6-16.4 1.8-1.9 3.3-3.9 5-5.9 2.6-3.5 5.4-7 9.3-9.4z" class="cls-11" transform="translate(-69.5 -181.2)"/>
  <path d="M192 727.7c-1.2-.1-2.4-.3-3-1.6-.1-.2-.2-.7 0-.8.4-.3 1-.7 1.4-.5 1.3.4 1.6 1.6 1.6 2.9z" class="cls-9" transform="translate(-69.5 -181.2)"/>
  <path fill="#fee9a4" d="M193.9 727.7a13.2 13.2 0 0 1 2.1 1.4 1.9 1.9 0 0 1 .4 1.5c0 .7-1 .5-2-.3a2.9 2.9 0 0 1-.5-.8v-1.8z" transform="translate(-69.5 -181.2)"/>
  <path d="M232.4 604.7a2.7 2.7 0 0 1 2.2 1.7l-.6.6a2.6 2.6 0 0 1-1.8-2z" class="cls-11" transform="translate(-69.5 -181.2)"/>
  <path d="M193.9 727.7v1.8l-1.9-1.8a10 10 0 0 1 1.9 0z" class="cls-9" transform="translate(-69.5 -181.2)"/>
  <path d="M247.6 770c-.8-.2-1.1-.5-.9-1.1h.7a2.6 2.6 0 0 1 .4.9z" class="cls-10" transform="translate(-69.5 -181.2)"/>
  <path d="M247.8 769.8l1.3.8c-1 1.2-1.2 0-1.5-.6z" class="cls-10" transform="translate(-69.5 -181.2)"/>
  <path d="M232.2 604.9c-.8-.2-1-.5-.8-1a.9.9 0 0 1 .6 0 2.2 2.2 0 0 1 .4.8z" class="cls-11" transform="translate(-69.5 -181.2)"/>
  <path d="M397.5 743c0 2.2.3 4.4-2 5.8l-1.8-1.8a6.1 6.1 0 0 1 3.8-4z" class="cls-13" transform="translate(-69.5 -181.2)"/>
  <path d="M362.9 581.7a15.7 15.7 0 0 1 .2-1.8c0-.2.4-.7.5-.7.8.2 1 .7.6 1.4a6.7 6.7 0 0 1-1.3 1.2zM360.9 583.6a2.6 2.6 0 0 1 2-1.9 2.5 2.5 0 0 1-1.8 2z" class="cls-11" transform="translate(-69.5 -181.2)"/>
  <path d="M399.4 740.8a3 3 0 0 1-2 2.3l2-2.3z" class="cls-13" transform="translate(-69.5 -181.2)"/>
  <path d="M393.7 747l1.8 1.8h-2a5.5 5.5 0 0 1 .2-1.8z" class="cls-10" transform="translate(-69.5 -181.2)"/>
</svg>
