<svg xmlns="http://www.w3.org/2000/svg" id="Слой_1" data-name="Слой 1" viewBox="0 0 2902.9 803.7">
  <defs>
    <style>
      .cls-2{fill:#0284c9}.cls-6{fill:#0384ca}.cls-9{fill:#fef4d2}.cls-10{fill:#fef4d3}.cls-11{fill:#e3833d}.cls-12{fill:#eda757}.cls-14{fill:#eca033}
    </style>
  </defs>
  <path fill="#fee080" d="M182.4 718.1a348 348 0 0 1-29.4-29 373.4 373.4 0 0 1-27.1-33.4c-9.4-13.4-18-27.2-25.2-41.8a257.4 257.4 0 0 1-22.4-66c-1.6-8.8-3.4-17.5-3.7-26.5a53 53 0 0 0-.9-5.7 40 40 0 0 1-.4-3.8 3.3 3.3 0 0 1 4-3A29.1 29.1 0 0 1 81 510c5 2 10.2 3.8 15.2 5.9a433.4 433.4 0 0 1 69.6 36.4l5 2.8a6.2 6.2 0 0 0 3.4 3 1.6 1.6 0 0 0 2-2 5.6 5.6 0 0 0-3.3-3 53.9 53.9 0 0 0-3.8-4.5c-8-7.7-15.1-16.4-22.4-24.9-2.9-3.4-5.5-7-8.1-10.6a319.4 319.4 0 0 1-27.8-44.8 242.7 242.7 0 0 1-12.7-29c-5-14.2-9.5-28.5-12.1-43.3-1.3-7.5-3-15-3.6-22.6-.3-3.5-1.1-7-1.8-10.4-1.9-10.7-2.8-21.5-5-32.1-1-5-1-10.1-2.2-15.2-1.4-5.8-1.7-12-2.5-18-.2-1.5-.7-3-1-4.6-.3-1.8-1.2-3.6.2-5.2 1.9 1 2.2 3 2.8 4.8l21.4 60.5 1.1 2.6a8.5 8.5 0 0 0 5.3 5.2 228.3 228.3 0 0 1 24 12 414.9 414.9 0 0 1 30.3 18.4 8.4 8.4 0 0 0 2.6 1 1 1 0 0 0 1.3-1c-.5-3.9-.7-7.7-1.7-11.4-1.7-6.5-1.2-13.3-3.2-19.8-.4-1.4 0-3.1 0-4.8.5.2 1.2.3 1.3.7 2.6 6.1 5.2 12.3 7.6 18.6l8.2 22.5 1.9 4.4a19.3 19.3 0 0 0 6.9 9 67.1 67.1 0 0 1 7.3 6.2c8.3 8 16.4 16.1 24.6 24.3 6.3 6.3 11.8 13.4 17.2 20.5a35 35 0 0 0 3.1 3.6c1.1 1.1 2.3.7 3.4 0l1.1 3.5a36.3 36.3 0 0 0 5.7 12 240.9 240.9 0 0 1 20.2 34.6q5.3 10.8 10 21.7c3.8 8.5 6.6 17.3 10 25.8a75.2 75.2 0 0 1 3.4 10c1.7 7.2 4 14 5.9 21.2.7 3 2 6 2.1 9.2a9.8 9.8 0 0 0 3.7 7.6c.2 2.8 0 5.8.8 8.5a43.8 43.8 0 0 1 1.2 8.5 57.1 57.1 0 0 0 .8 5.7l1.5 8.4a12.3 12.3 0 0 1-.7 1.8 1.8 1.8 0 0 1-2.3 1 38.1 38.1 0 0 1-4.3-1.9c-10.1-5.3-19.9-11.3-29.5-17.5l-28.7-18.7c-1.5-2.1-3-4.2-5.7-4.8-.5-.1-1.1.4-1.6.7v1c1 2.5 2.9 4 5.2 5.3a19.6 19.6 0 0 0 1.6 2.3c7.3 7.3 13.4 15.4 19.7 23.5a337.4 337.4 0 0 1 45 77.8c2.4 5.9 4.8 11.8 7 17.8a396.2 396.2 0 0 1 15 51.4c.9 3.7 2.3 7.3 2.3 11.2 1.6 5.5 2.3 11.2 3.4 16.7a19.3 19.3 0 0 1 .2 2.9c-2 0-3.7-.9-5.5-1.7-14-6.6-27.5-14.6-41.3-21.9l-1.6-1-26.8-16.5a8.3 8.3 0 0 0-5.5-1.4 2.1 2.1 0 0 0-2-1.8 2.8 2.8 0 0 0-.3-.7.9.9 0 0 0-.6-.2c-.2.6.1.9 1 1a2.2 2.2 0 0 0 1.7 2 13.8 13.8 0 0 0 1.5 2.4 365.2 365.2 0 0 1 40.6 48 306.8 306.8 0 0 1 21 33.1 402.1 402.1 0 0 1 20.8 45 424.5 424.5 0 0 1 20.3 70.5 8.5 8.5 0 0 0 1.4 2.4c.1 3.5.1 7 1.3 10.4.7 2 .7 4.4 1 6.6a14.4 14.4 0 0 1-3.7-.7l-17-8.9c-2.3-1.1-4.4-2.5-6.7-3.6-11.2-5.5-21.7-12.2-32.5-18.5a623.4 623.4 0 0 1-73.4-51.8c-6.2-5-12-10.5-17.9-16-3.5-3.2-7.3-6-10.7-9.5a361.8 361.8 0 0 1-53.7-67 227.2 227.2 0 0 1-16-30.5c-4-9.5-8-18.9-11.2-28.6a267.3 267.3 0 0 1-8.8-35.2c-1-5.9-2.5-11.8-2.3-18 0-2.2-.8-4.3-1-6.6l-.4-6.6c0-2 1.4-3.1 3-2.6 4 1.3 8 2.5 11.8 4 15 6.2 30 12.7 44.4 20.3 7 3.7 14 7.6 21 11.5 1.7 3 4.4 4 7.7 3.8a3 3 0 0 0 2 2l1 .7-.8-1a3 3 0 0 0-2-2 12 12 0 0 0-6-5.7zm40.4-121l1.9 2a3 3 0 0 0 .3.6l.5.1-.9-.7a2.6 2.6 0 0 0-2-2c-.2-.8-.4-1-.6-.4l.8.4zm-42.3-36.5a2.6 2.6 0 0 0-.4-.7l-.6-.1 1 .9a2.3 2.3 0 0 0 .2.7l.6.1z" transform="translate(-69.3 -184.7)"/>
  <path d="M1082.2 880.5l1 58.6v3.8a3.1 3.1 0 0 1-2.6 2.4l-2 .2H976a69.5 69.5 0 0 1-7.5-.5c-.5 0-1-.8-1.4-1.3a4.1 4.1 0 0 1-.4-1.8V937l1.6-75.8.7-24a3.9 3.9 0 0 1 2.6-3.7l6.3-2.4a129 129 0 0 0 26-14.1 9 9 0 0 0 4-6.2l13.3-77.5a5.8 5.8 0 0 0-2.2-6 637 637 0 0 1-13.3-11c-2-1.9-4.3-2.6-7-1.7a40.2 40.2 0 0 1-4.6 1.4c-3.5.8-5-.2-4.9-3.6.1-5.5.4-10.9.6-16.3l1-19.2c1.1-22.3 2.4-44.7 3.2-67 .6-14.5.9-28.9.7-43.3a105 105 0 0 0-9.2-40.9 100.4 100.4 0 0 0-14-22.8 36.3 36.3 0 0 1-3.1-4.7c-.2-.3.3-1.2.7-1.5a3.6 3.6 0 0 1 1.8-.7 24.7 24.7 0 0 1 2.8-.3l41.2-2.6 38.3-3 22-1a3.3 3.3 0 0 1 2.6 2.3l.2 6.7v30.7c0 2.3 0 4.5.2 6.7a3.5 3.5 0 0 0 2.9 3.3l1.9.1h14.4a7.2 7.2 0 0 0 5.8-2.8l7-8c11.9-13 25-24.6 40-34 4.4-2.8 8.9-5.2 13.3-7.7a16.5 16.5 0 0 1 10.1-2.4c10.5 1 21 2.3 31.2 5.3a101.8 101.8 0 0 1 52.2 35.6 135.7 135.7 0 0 1 23.3 46 202.7 202.7 0 0 1 8.3 48c.2 4.5.6 9 .7 13.5.7 26.3-1.5 52.4-8.6 77.9a160.3 160.3 0 0 1-12.3 31.1q-26.7 51-81.5 68.6a171.5 171.5 0 0 1-43.3 8c-5.7.3-11.5.8-17.2.9a248.8 248.8 0 0 1-31.6-2.2c-3.8-.5-7.6-.8-11.4-1.1a2.4 2.4 0 0 0-2.4 2.4v5.7l1 56.6zm-4.5-210.6c.2 3.7.5 9.5.6 15.2l1 53.8c.1 12-.8 10.1 10.5 13a95 95 0 0 0 39 2.7c11.7-1.9 22-6.5 30.3-15.1a57.8 57.8 0 0 0 12.3-19.3 117.7 117.7 0 0 0 7.5-33.6 261.7 261.7 0 0 0 .3-42.2 166.6 166.6 0 0 0-2.7-20 76.3 76.3 0 0 0-5.3-17.4 90.2 90.2 0 0 0-5.7-11 49 49 0 0 0-32.4-22c-19.2-4-36.8-.6-52.6 11.3a6 6 0 0 0-2.7 4.9V670zM2368 688c.1-4.2.2-8.3.5-12.5a321.2 321.2 0 0 0 .3-36.4c-1-21.7-1.2-43.5-1.7-65.3l-1.7-66.2V499a3.6 3.6 0 0 1 2.4-2.6l1.8-.4 4.8-.3 50.8-3.6 41.1-2.7 5.8-.2a2.9 2.9 0 0 1 3.2 2.7l.2 7.7v168a202.9 202.9 0 0 0 1.2 21 52.9 52.9 0 0 0 3.4 14 35 35 0 0 0 30.4 23.1 59 59 0 0 0 42-10l8.3-5.9c1.1-3.9.7-7.4.7-10.9V529v-24-5.8a3.4 3.4 0 0 1 2.4-2.7c2.2-.3 4.4-.7 6.6-.8 13.4-1 26.8-1.7 40.2-2.6l37.3-2.9c7-.5 14.1-.7 21.1-1a3 3 0 0 1 2.7 2.3v4.8l-1.1 34.5-3.2 88.3v1.9l-2.8 89.2.3 10.6a22.6 22.6 0 0 0 3 10c3.6 6.2 9 10 16.2 10.5 2.5.2 5.1.1 7.7.2a2.2 2.2 0 0 1 1.9 1.7 37.8 37.8 0 0 1-.3 4.8l-7.8 46.3a24 24 0 0 1-1.3 4.7 5.6 5.6 0 0 1-1.7 2.2 24.6 24.6 0 0 1-3.3 2 120.5 120.5 0 0 1-46.4 14.2 37.3 37.3 0 0 1-18.7-2.9 61.8 61.8 0 0 1-23.8-17.5 91.5 91.5 0 0 1-14-22.9c-2.1-5-4-10-6-15.1a3.9 3.9 0 0 0-3.6-2.7 411 411 0 0 0-20.1 0l-7.4 7.9a264.8 264.8 0 0 1-29.5 27.4 137.8 137.8 0 0 1-38.5 21.2 22.5 22.5 0 0 1-7.5 1.6c-17 0-33.7-2.4-49.7-8.8a77.2 77.2 0 0 1-23.6-14.4c-1.6-1.4-2.4-3-1.7-5.1 2.5-7.3 3.6-14.9 4.4-22.5a87.8 87.8 0 0 0 0-21.1 133.6 133.6 0 0 0-2.6-16 72.2 72.2 0 0 0-18.3-33.3l-3.3-3.5-1.1-1.8zM2038.9 588.5l-.4 6.4c0 24-.1 48 .1 72 .2 15.3 1 30.6 1.5 46l.2 3.8 3 85.3v4.8a3.1 3.1 0 0 1-2.8 3.2l-2.9.2h-84.4a13.3 13.3 0 0 1-3.8-.4 3.4 3.4 0 0 1-2-1.7 12.8 12.8 0 0 1-.5-3.8c-.7-21.7-1.4-43.5-2.3-65.2l-2.7-65.2c-.2-4.5 0-9 .2-13.4l.8-21.1 2.7-84.4 1.6-49 .4-7.6c.1-1.9 1.1-3.1 2.8-3.3 3.5-.4 7-.9 10.5-1.1 13.4-1 26.8-1.7 40.2-2.6l29.7-2 4.8-.2c.9 0 2.6 1.5 2.7 2.3l.2 6.7v34.6a22.7 22.7 0 0 0 .6 4.7c.1.5.8 1 1.3 1.2a4.4 4.4 0 0 0 1.9.4h14.4a9 9 0 0 0 6.8-2.8c4.4-4.3 8.7-8.5 13.3-12.5a202.4 202.4 0 0 1 56.8-35.2 58 58 0 0 1 6.2-2.5 22.2 22.2 0 0 1 6.6-1c12.5.4 25 1.3 37 4.7a94.9 94.9 0 0 1 23.8 10 65 65 0 0 1 31.4 46 95.3 95.3 0 0 1 1.7 21c-.1 3.9 0 7.7-.2 11.5-.7 23.7-1.2 47.4-2.2 71-.5 12.8-.8 25.6.1 38.4.2 1.9.2 3.8.2 5.7l2.8 90.2c.2 7 .7 14 1 21a15 15 0 0 1-.3 3.9 2 2 0 0 1-1.3 1.3 40.5 40.5 0 0 1-5.7.4h-99.8c-2.6 0-5.2 0-7.7-.2a2 2 0 0 1-1.9-1.9 34.6 34.6 0 0 1-.2-4.8l1.7-46 .1-2.8 2.5-73 2-49.8a86.3 86.3 0 0 0-2.2-23.8 53.4 53.4 0 0 0-7.5-17.5 39 39 0 0 0-22-16 51.5 51.5 0 0 0-20-1.8 82.8 82.8 0 0 0-40 15 7.6 7.6 0 0 0-.8.9z" class="cls-2" transform="translate(-69.3 -184.7)"/>
  <path d="M863.3 620.1a13.2 13.2 0 0 0 1-2.7v-24a47.8 47.8 0 0 0-2-12.3c-4-14.3-13.4-22.9-27.7-26a84.5 84.5 0 0 0-26.8-1.3c-21.9 2.2-42.4 9-62.6 17.4-7.6 3.2-15 6.9-22.6 10.3-2 1-4.1 1.8-6.2 2.7a1.9 1.9 0 0 1-2.3-1l-1.4-5.5-3.4-20.4a36.2 36.2 0 0 1 1.7-4l29-54.1c.4-.9 1-1.6 1.8-2.9l5-1.8a342.5 342.5 0 0 1 50.5-10.8 315.9 315.9 0 0 1 49.7-3.3 217 217 0 0 1 54 7.2 120.4 120.4 0 0 1 30 12.6 77 77 0 0 1 38.9 62.7 138.6 138.6 0 0 1 .3 22c-.2 2.5-.1 5-.2 7.6l-2.8 69a4386 4386 0 0 1-2.3 47 64.1 64.1 0 0 0 .9 15.3 21.6 21.6 0 0 0 7.5 13 18.1 18.1 0 0 0 10.5 4.4c2.2.2 4.4.1 6.7.1 3.4 0 4.2.9 3.7 3.8q-1 6.7-2.2 13.3l-5.3 31.2-2.1 10.5c-1.5 1-3 2.3-4.7 3.2a116.8 116.8 0 0 1-39 12.6c-1.9.3-3.8.3-5.7.8-6.8 1.6-13.4.3-19.8-1.8a54.3 54.3 0 0 1-25.8-17.5 80 80 0 0 1-12.3-21.6c-1.3-3.2-1.9-6.8-4.6-9.7-5.9-.8-12-.2-17.4-.4-3.3 1.7-4.8 4.2-6.7 6.3a187 187 0 0 1-32.8 29.4 156.1 156.1 0 0 1-26.8 15 19.5 19.5 0 0 1-8.4 1.6 145 145 0 0 1-29.4-4 6.5 6.5 0 0 1-4.3-3.6l-3.7-6.7-58-108.2a34.2 34.2 0 0 0-1.8-3.4c-2.6-3.8-2.6-7.5-.9-11.8a62.8 62.8 0 0 1 26.8-31.6 94 94 0 0 1 29.4-11.2 332 332 0 0 1 20.9-3.4c11.7-1.6 23.4-3 35.2-4.5s23.4-3.3 35.1-4.9l20-2.6 13.4-2zm1.2 73.6v-27.8c0-8.6-.5-7.8-8-7.2l-3.8.5c-12.7 1.8-25.4 3.5-38 5.4a98 98 0 0 0-10.4 1.8c-11.7 3-19.8 10-23.3 21.8a31.7 31.7 0 0 0-1.6 7.5c-.2 5.4-.2 10.9 0 16.3a34.4 34.4 0 0 0 3.9 13.7 32.3 32.3 0 0 0 20.5 17.6 55.9 55.9 0 0 0 26.6.8c11.5-2 21.7-7.3 31.1-14a6.3 6.3 0 0 0 3-5.7v-30.7z" class="cls-2" transform="translate(-69.3 -184.7)"/>
  <path d="M632.9 647.4c.2 3.3 1.7 5.4 3 7.6l44.4 82.8 32.2 60c1.2 2.3 2.4 4.6 3.4 6.9.3.8 0 1.8 0 2.8a22.3 22.3 0 0 1-3 .6l-23 1.6-45 2.6-43 2.9c-2 .1-3.9.6-6-.9-.8-1.7-1.7-3.7-2.4-5.8q-2.3-6.3-4.3-12.7a463.8 463.8 0 0 0-18.6-47.3c-5.5-12.2-10.7-24.6-16-36.9l-4-8.6c-.9.2-1.7 0-2 .4a28.2 28.2 0 0 0-2.5 4c-11.7 22.4-23.5 44.8-35 67.3-3.7 7-6.6 14.5-9.8 21.8l-4.6 10.6c-.9 1.8-2.2 3.1-4.4 3h-83.5a47.6 47.6 0 0 1-5.8-.4c-.3 0-1-1-.9-1.3a51.3 51.3 0 0 1 2.6-6l29.9-57 46-87.5 3.4-7-4.4-8.6L404 501c-1.4-2.5-2.6-5-3.7-7.7a1.7 1.7 0 0 1 .7-1.5 17.5 17.5 0 0 1 3.8-.5l65.2-2.1 43.2-1.6h7.6a3 3 0 0 1 2.9 2.1l2.4 7.3 9 27.3a70.3 70.3 0 0 0 2.7 7.2l28.4 62c.7 1.4 1.2 3 3.5 3 9-17.4 17.6-35.3 26.7-53s17.4-35.5 26.4-53.2a38.8 38.8 0 0 1 4-.5c17.6-.5 81.2-.1 88.2.5a3.5 3.5 0 0 1-.1 3.6l-10.4 19.5-68 126.8c-1.4 2.5-2.6 5-3.7 7.2zM2696 505.4a29.9 29.9 0 0 1 4-2.4 289.1 289.1 0 0 1 34.6-11.3 331.1 331.1 0 0 1 50-9.3c15.2-1.6 30.6-2.8 46-2 16.6.9 33.1 2.5 49.2 7.1 12.4 3.6 24.1 8.5 34.8 15.9q27.4 19 32.9 52a104.7 104.7 0 0 1 1.6 20l-1 32.6-.4 6.7-2.7 62.4-1.6 31.6v9.6a26.4 26.4 0 0 0 2.4 10.2 20 20 0 0 0 17.7 12.8c2.5.2 5 0 7.6.3a1.8 1.8 0 0 1 1.2 1.2 42.3 42.3 0 0 1-.3 6.7l-4.1 24.6-3.7 21.7a8.8 8.8 0 0 1-4.6 6.9 119.2 119.2 0 0 1-29.5 11.2 178.8 178.8 0 0 1-20.8 3.3 54.6 54.6 0 0 1-43.3-22.8 81.6 81.6 0 0 1-10-18.5l-3.1-8a3.1 3.1 0 0 0-3-2c-3.2-.2-6.4-.3-9.6-.2-2.6 0-5 .2-7.7.3l-6.6 7.2a191.4 191.4 0 0 1-26.8 24.6 156 156 0 0 1-32.3 18.7 15.2 15.2 0 0 1-6.5 1.5c-16.7-.6-33-3.6-48.5-10.2a4 4 0 0 1-1.6-1 4.9 4.9 0 0 1-1.3-2.5 29.9 29.9 0 0 1 .5-5.7l8.7-50 2.5-16.2a4.5 4.5 0 0 0-1.5-4.3l-15.5-12.9a4.2 4.2 0 0 0-3.6-.8l-8.4 2a2.7 2.7 0 0 1-2.7-2 27.8 27.8 0 0 1-.2-3l1.8-53.6c.5-13-.6-11 11.2-15.8a102.7 102.7 0 0 1 23.1-6c10.1-1.5 20.3-2.7 30.4-4.1l38-5.1 35.2-4.6 12.3-2a2.8 2.8 0 0 0 2.4-2.6c.1-10.5 1-21-1.3-31.5l-1.3-5.6c-4-14-13.4-22.2-27.4-25.4a78 78 0 0 0-25.7-1.4 192.5 192.5 0 0 0-39.3 8.4 335 335 0 0 0-42.6 17.3l-9.6 4.3a2 2 0 0 1-2.2-1.3c0-1.9-.3-3.8-.2-5.7l1.6-48 .5-19.2.3-4.1zm147 222l.3-4.6v-57.5a34.5 34.5 0 0 0-.6-5.6 1.8 1.8 0 0 0-1.3-1.1 79.1 79.1 0 0 0-9.5.4c-13.6 1.8-27.2 3.7-40.7 5.7a74.6 74.6 0 0 0-9.4 1.9 30.6 30.6 0 0 0-22.9 23.4 58 58 0 0 0 0 27.5 34.4 34.4 0 0 0 32.6 27.5 72.4 72.4 0 0 0 51.6-17.5zM1545.3 651.1c-1 22 .3 45 1.2 68l.2 2.8 2.9 80.6v4.8c0 1.6-1.2 2.7-3.2 2.8h-110.3a3 3 0 0 1-3.2-2.9v-3.8c1-18.2 2-36.4 2.8-54.6l2.5-60.4a37.4 37.4 0 0 0-.3-5.7c0-.5-.8-1-1.2-1.4a1.6 1.6 0 0 0-1-.2c-6.7 0-13.4-.2-20.1 0a6.6 6.6 0 0 0-3.5 1.3c-1.8 1.3-3.4 2.9-5 4.4a187.1 187.1 0 0 1-46.7 30c-4.5 2-9 3.2-13.9 2.8-12.4-1.1-24.9-1.7-37-5.1a10 10 0 0 1-2.6-1 2.4 2.4 0 0 1-1-1.6 8.4 8.4 0 0 1 .2-2.8 261 261 0 0 0 7.5-63.7c0-7.6 0-15.3-.4-23-1.2-23-5-45.7-12.8-67.5-8.3-23.3-21-43.8-39-60.8a32.6 32.6 0 0 1-2.6-2.8c-.1-.1 0-.5 0-.8s.4-.7.6-.7a28.5 28.5 0 0 1 3.8-.4h87.3a26 26 0 0 1 4.7.5 2 2 0 0 1 1.3 1.3 14.5 14.5 0 0 1 .5 3.8l-.6 16.3-1.3 57.5c-.1 5.8-.3 11.5-.6 17.3a97.2 97.2 0 0 0 1 19.1 42.8 42.8 0 0 0 6 16.1 37 37 0 0 0 29.2 17.8 45.4 45.4 0 0 0 11.4-.3c11.8-1.8 22.9-5.9 33.5-11.2a3.5 3.5 0 0 0 1.9-3.1 34.9 34.9 0 0 0-.1-3.8l-1-34.6-2.1-85.3c0-3.2 0-6.4.2-9.6a2 2 0 0 1 1.3-1.3 40.5 40.5 0 0 1 5.7-.5h97.8l7.7.1c2.8 0 3.8 1.2 3.7 4.3l-.2 5.8-1 27.8-3.3 93c-.5 9.8-.6 19.7-.9 30.7z" class="cls-2" transform="translate(-69.3 -184.7)"/>
  <path fill="#fdd630" d="M301.9 641.8l-1.5-8.5a57.1 57.1 0 0 1-.8-5.6 43.8 43.8 0 0 0-1.3-8.5c-.7-2.7-.6-5.7-.8-8.6l.1-10.5v-30.6c0-2.5-.2-5.2.6-7.6 1.3-3.7 1.2-7.5 1.3-11.3 0-2.6-.1-5.2.5-7.6a52.8 52.8 0 0 0 1.5-8.4 83.5 83.5 0 0 1 1.8-9.4c1.2-5.2 2.2-10.5 3.3-15.8 1.4-6.5 4-12.7 5.3-19.3a19.2 19.2 0 0 1 3.8-8.6c.7-.9.7-2.4 1-3.6a235.5 235.5 0 0 1 17.5-39.3 303.6 303.6 0 0 1 24.5-37.9 13 13 0 0 0 2.6-7c1-10.8 1.5-21.6 2-32.5.4-9 1.3-17.9 2-26.7.4.3 1 .7 1.1 1.2 2 7.4 2.8 15.1 4 22.7l2.5 17a18.1 18.1 0 0 0 .9 2.8c.3.9 1.7 1.5 2.3 1l2.7-2.6a425 425 0 0 1 36.8-35.2 7.5 7.5 0 0 0 2.8-5.8q1-20.1 2.3-40.2l2.3-31.6a.8.8 0 0 1 .4-.5 1.2 1.2 0 0 1 1.6.7 9.8 9.8 0 0 1 .6 1.8c2.2 15.2 4.3 30.4 6.6 45.5 2.1 13.6 4.5 27.1 6.6 40.7a214.2 214.2 0 0 1 1.4 54.5 281.9 281.9 0 0 1-8.5 45.2 73.8 73.8 0 0 1-4.7 13.8 28 28 0 0 1-3.6.8c-1.5.2-3.1.1-4.7.2l-47 1.8a7.5 7.5 0 0 0-2.9.3c-.7.4-1.8 1.2-1.8 1.9a90 90 0 0 0-.3 10.5 11.5 11.5 0 0 0 1.5 4.5q5 9.8 10.3 19.5c6.6 12.5 13.3 24.8 20 37.2l38.8 72.8 14.9 28 2.2 4.2a7.1 7.1 0 0 1-.1 7.3l-14 25.2-2.5 4a19.7 19.7 0 0 0-2.4 6.3 25 25 0 0 1-6.5 12.5c-2.2.2-4.3.7-5.7 2.8a279 279 0 0 1-22.6 30.2c-.8.8-.8 2.3-1.2 3.5l-2 2.1a6.3 6.3 0 0 0-3.7 4l-.1 1.8c-4.1 2-7 5.6-9.5 9-4 5.4-8.7 10-13.3 14.9a22.8 22.8 0 0 0-3.1 3.5c-2.3 3.9-5.7 6.8-8.8 10l-20.8 20.9-5.4 5.3a6.4 6.4 0 0 1-4.3 1.8 20.8 20.8 0 0 0-.1-2.9c-1.2-5.5-1.9-11.2-3.4-16.7.3-.5.9-1 1-1.5a20.8 20.8 0 0 0-.2-10.5 38.7 38.7 0 0 1-1.2-11.3v-40.2c0-5-.4-10.2 1.5-15.2a8.4 8.4 0 0 0 .2-2.8c.1-6 .1-12.1 2-18 .6-10.5 3.3-20.7 5.5-30.9 1.6-7.1 3.7-14.1 5.7-21.2s4.2-14 6.9-20.8 5-13.8 8.2-20.3c1.9-3.7 3.3-7.6 5-11.4a10 10 0 0 0 .8-2.7c0-.5-.4-1-.8-1.5a1 1 0 0 0-1 0c-1.2.9-2.7 1.6-3.6 2.9-4.7 7.2-11.7 12.6-16.5 19.7l-31.6 32a10.5 10.5 0 0 1-5 2.8z" transform="translate(-69.3 -184.7)"/>
  <path d="M1918 650c-.7 20.8-.1 41.6 1.2 62.4l.1 2.8 3 87.3v4.8a2.8 2.8 0 0 1-2.3 2.7l-3.8.2h-104.7l-3.8-.2a2.8 2.8 0 0 1-1.8-2 22 22 0 0 1 2-11.2c6.4-13.2 8.9-27.2 9-41.8 0-12.6-1-25-5.5-36.8a16.3 16.3 0 0 1-1-6.6c.2-6.4.3-12.8.7-19.2.4-6 .3-12.1.2-18.2l-1.1-51.8-2-76.8c-.4-14-1-28.1-1.3-42.2-.2-6.2-.2-7 6.8-7.5l39.3-2.5c14.6-1 29.3-2.1 44-3 7.3-.6 14.7-.9 22-1.2a15.1 15.1 0 0 1 1.9 0 2.7 2.7 0 0 1 2.4 2.6l-.3 15.3-1.2 30.7-1.9 54.7-1.9 57.5zM1661.5 649.7a288.8 288.8 0 0 0 .1 38.4c.2 2.2.4 4.5.4 6.7l2.6 72 1.4 31.6.1 8.6a3 3 0 0 1-3 3h-80.7a33.2 33.2 0 0 1-5.8-.3 3 3 0 0 1-1.9-1.8 12.7 12.7 0 0 1-.5-3.8l-2-55.6-2.9-66.2a312.3 312.3 0 0 1 .2-31.6l1-21.1 2.6-84.4 1.5-43.2.3-4.8a3.3 3.3 0 0 1 2.5-2.5 42.1 42.1 0 0 1 4.7-.7l41.2-2.6 40.2-2.7a2.8 2.8 0 0 1 3.2 2.8v4.8l-1.5 42.2-1 36.4c-.8 25-1.8 49.9-2.7 74.8z" class="cls-2" transform="translate(-69.3 -184.7)"/>
  <path fill="#ffc760" d="M316.7 477.9c-.3 1.2-.2 2.7-1 3.6a19.2 19.2 0 0 0-3.8 8.6c-1.3 6.6-3.9 12.8-5.3 19.3-1 5.3-2 10.6-3.2 15.8a83.5 83.5 0 0 0-1.8 9.4 52.8 52.8 0 0 1-1.5 8.4c-.7 2.4-.5 5-.6 7.6 0 3.8 0 7.6-1.2 11.3-.8 2.4-.6 5-.7 7.6v41.1a9.8 9.8 0 0 1-3.7-7.5c0-3.3-1.3-6.2-2.1-9.3-1.9-7-4.2-14-6-21a75.2 75.2 0 0 0-3.3-10c-3.4-8.6-6.2-17.4-10-25.9q-4.8-11-10-21.7a240.9 240.9 0 0 0-20.2-34.6 36.3 36.3 0 0 1-5.6-12l-1.1-3.6a376.3 376.3 0 0 1-9.3-43l-3-18.9a55.5 55.5 0 0 1-.5-6.7l-.4-18.2a122.9 122.9 0 0 1 3-29.5 165.5 165.5 0 0 0 3.3-22.7c.4-5 1.2-10.2 1.6-15.2.4-4.8 0-9.7.7-14.4 1.9-13.7 1.3-27.5 1.4-41.2.2-20.1-.1-40.3-.2-60.5 0-3.2.2-6.3.4-9.5 0-.2.3-.3.4-.4 1.7 1.4 1 3.5 1.5 5.3a499.4 499.4 0 0 0 21.6 69.5 635 635 0 0 0 33.1 73.4c2.4 4.5 5 9 7.5 13.4a37 37 0 0 1 5 13.3c1.3 8.9 3.4 17.6 4.9 26.4 1 6.3 1.4 12.7 2.6 19 1.8 9.1 1.4 18.4 3.2 27.6a39 39 0 0 1 .4 5.7c.3 6 .6 12.1 1.4 18.2s.5 12 .7 18.2a3.8 3.8 0 0 0 1.8 3z" transform="translate(-69.3 -184.7)"/>
  <path fill="#f9d01b" d="M399.4 739c.4-1.2.4-2.7 1.1-3.5a279 279 0 0 0 22.7-30.2c1.3-2 3.4-2.5 5.7-2.7-.4 2.9-2 5.3-3.4 7.9l-54.8 104.3c-.7 1.4-1.3 2.8-2.2 4.2-2.6 4.4-2.3 9.1-1.4 14a2.2 2.2 0 0 0 1.2 1.2 8.5 8.5 0 0 0 2.8.5h96.8l7.6.3c.8 0 1.8 1.4 1.5 2-1 2.3-2.1 4.6-3.4 6.9a492.5 492.5 0 0 1-32.8 50.6 660.6 660.6 0 0 1-55 65c-8.7 9-17.2 18.1-26.4 26.5-1.1 1.1-2.2 2.4-4 2.4-.3-2.2-.3-4.5-1-6.5-1.1-3.5-1.1-7-1.2-10.4 0-4.5.2-9-1.3-13.3-.6-1.7-.4-3.8-.4-5.7V897c0-2.2-.2-4.6.5-6.6 1.2-3.8 1.1-7.5 1.3-11.4a26 26 0 0 1 .3-4.7 64 64 0 0 0 1.7-10.3 88.7 88.7 0 0 1 1.9-11.3l1.7-7.4c1.8-11.3 5-22.3 8.2-33.3a263.8 263.8 0 0 1 10-26.8c4.5-10.6 8.8-21.2 14.6-31a11.3 11.3 0 0 0 1.9-7.3v.1a3 3 0 0 0 2-2c1.6-.8 1.8-2.2 1.8-3.8a3 3 0 0 0 2-2.2z" transform="translate(-69.3 -184.7)"/>
  <path d="M1860.9 423.1c-6.4-.5-13-.6-19.7-2.2a43.4 43.4 0 0 1-33.8-34 83 83 0 0 1 1-45.5 53 53 0 0 1 43.9-38.1 80.9 80.9 0 0 1 30.4 0 54.3 54.3 0 0 1 15.4 5.3 43 43 0 0 1 18 18 53 53 0 0 1 5.3 14.3 87.2 87.2 0 0 1-1.2 41.8 53.4 53.4 0 0 1-47.6 39.7c-3.8.4-7.6.5-11.7.7z" class="cls-6" transform="translate(-69.3 -184.7)"/>
  <path fill="#0284ca" d="M1685.5 798.9v-72.1-4.8a9 9 0 0 1 2.4-6.1 50.7 50.7 0 0 1 20.6-15.2 74.6 74.6 0 0 1 35.7-4.8 71.8 71.8 0 0 1 15 2.9c15 4.9 24.8 15 30 29.9a75.6 75.6 0 0 1 3.2 16.9 77.6 77.6 0 0 1-3.9 34 51.8 51.8 0 0 1-42.3 35.8 84.2 84.2 0 0 1-37.1-1.4 42.5 42.5 0 0 1-23.6-15.1z" transform="translate(-69.3 -184.7)"/>
  <path d="M2263.7 717.3c9.2-11.8 21-18 35.1-20.5a81.3 81.3 0 0 1 30.5.2c9.9 2 18.7 6.1 25.9 13.5a47.9 47.9 0 0 1 10 16.2 54.9 54.9 0 0 1 3.2 13 86 86 0 0 1-2.8 38.8 52.5 52.5 0 0 1-45.3 37.4 92.1 92.1 0 0 1-25.8 0 49.9 49.9 0 0 1-26.3-10.6 5.5 5.5 0 0 1-2.1-4.1l-.2-3-2.3-72.7v-8.2z" class="cls-6" transform="translate(-69.3 -184.7)"/>
  <path fill="#fdd93f" d="M472.5 464.6h-11.4c-.2 0-.5-.4-.6-.6a1.6 1.6 0 0 1-.2-1 1.8 1.8 0 0 1 .5-.7 167.2 167.2 0 0 1 19.4-15.6 2.1 2.1 0 0 1 3 1.2l3 14c.3 1-1 2.4-2.2 2.5l-11.5.4z" transform="translate(-69.3 -184.7)"/>
  <path d="M188 724c-3.3.2-6-.8-7.7-3.8l2-2a12 12 0 0 1 6 5.5z" class="cls-9" transform="translate(-69.3 -184.7)"/>
  <path d="M172.8 553a5.6 5.6 0 0 1 3.3 3 1.6 1.6 0 0 1-2 2 6.2 6.2 0 0 1-3.4-3z" class="cls-10" transform="translate(-69.3 -184.7)"/>
  <path d="M393.6 746.8a11.3 11.3 0 0 1-1.8 7.3c-5.9 9.9-10.2 20.5-14.6 31a263.8 263.8 0 0 0-10 26.8c-3.3 11-6.4 22-8.3 33.3-.4 2.5-1.2 5-1.7 7.4a88.7 88.7 0 0 0-1.9 11.4 64 64 0 0 1-1.7 10.3 26 26 0 0 0-.3 4.8c-.2 3.8-.1 7.6-1.3 11.3-.7 2.1-.6 4.5-.6 6.7v55.5c0 1.9-.2 4 .5 5.7 1.5 4.3 1.2 8.8 1.3 13.2a8.3 8.3 0 0 1-1.5-2.4 424.5 424.5 0 0 0-20.3-70.5 402.1 402.1 0 0 0-20.8-45 306.8 306.8 0 0 0-20.9-33 372.5 372.5 0 0 0-40.6-48.1 13.8 13.8 0 0 1-1.5-2.4l.2-.2a8.3 8.3 0 0 1 5.4 1.3l26.8 16.6 1.6 1c13.9 7.2 27.3 15.1 41.4 21.8 1.7.8 3.4 1.7 5.4 1.7a6.4 6.4 0 0 0 4.3-1.8l5.4-5.3 20.8-20.9c3.1-3.1 6.5-6.1 8.8-10a22.8 22.8 0 0 1 3.1-3.5c4.6-4.9 9.2-9.5 13.3-14.9 2.6-3.4 5.4-7 9.5-9z" class="cls-11" transform="translate(-69.3 -184.7)"/>
  <path d="M301.9 641.8a10.5 10.5 0 0 0 4.9-2.9l31.6-31.9c4.9-7.2 11.8-12.6 16.5-19.8.9-1.2 2.4-2 3.7-2.9a1 1 0 0 1 .9 0c.4.5.9 1 .8 1.6a10 10 0 0 1-.8 2.6c-1.6 3.8-3.1 7.7-5 11.4-3.3 6.6-5.6 13.5-8.2 20.4s-5 13.7-7 20.8-4 14-5.6 21.2c-2.2 10.2-5 20.4-5.5 30.9-1.9 5.9-1.9 11.9-2 18a8.4 8.4 0 0 1-.2 2.8c-1.8 5-1.4 10-1.4 15.2v40.1c0 3.9 0 7.6 1.1 11.4a20.8 20.8 0 0 1 .2 10.4c-.1.6-.7 1-1 1.6 0-4-1.4-7.5-2.3-11.2a396.2 396.2 0 0 0-15-51.5l-7-17.8a338.9 338.9 0 0 0-45-77.8c-6.3-8-12.4-16.2-19.7-23.4a19.6 19.6 0 0 1-1.7-2.3l2.2-2.2c9.6 6.2 19 12.6 28.7 18.7s19.4 12.2 29.5 17.5a38.1 38.1 0 0 0 4.3 2 1.8 1.8 0 0 0 2.4-1.1 12.3 12.3 0 0 0 .6-1.8z" class="cls-11" transform="translate(-69.3 -184.7)"/>
  <path d="M236.3 606.5l-2.1 2.2a10.2 10.2 0 0 1-5.2-5.4v-.9c.5-.3 1.2-.8 1.6-.7 2.7.6 4.3 2.7 5.7 4.8zM224.6 599l.9.8-.5-.1a3 3 0 0 1-.3-.7z" class="cls-12" transform="translate(-69.3 -184.7)"/>
  <path d="M180.5 560.6l.8 1c-.2 0-.5 0-.6-.2a2.3 2.3 0 0 1-.3-.7z" class="cls-10" transform="translate(-69.3 -184.7)"/>
  <path d="M180.4 560.7l-1-1c.3 0 .6 0 .7.2a2.6 2.6 0 0 1 .4.7z" class="cls-10" transform="translate(-69.3 -184.7)"/>
  <path d="M190 726a3 3 0 0 1-2-2l.3-.3a3 3 0 0 1 2 2z" class="cls-9" transform="translate(-69.3 -184.7)"/>
  <path fill="#feecb1" d="M190.3 725.8l.7.9-1-.7z" transform="translate(-69.3 -184.7)"/>
  <path d="M222.8 597c-.3 0-.8-.2-.8-.3.2-.6.4-.4.7.5z" class="cls-12" transform="translate(-69.3 -184.7)"/>
  <path d="M245.8 768c-.8 0-1.2-.4-1-1a.9.9 0 0 1 .7.2 2.8 2.8 0 0 1 .3.8z" class="cls-11" transform="translate(-69.3 -184.7)"/>
  <path d="M224.7 599l-2-2v.1a2.6 2.6 0 0 1 2 2z" class="cls-12" transform="translate(-69.3 -184.7)"/>
  <path d="M247.6 770a2.2 2.2 0 0 1-1.8-2 2.1 2.1 0 0 1 2 1.8z" class="cls-11" transform="translate(-69.3 -184.7)"/>
  <path d="M397.5 741c0 1.7-.3 3-1.9 4h-2a6.3 6.3 0 0 1 3.9-4z" class="cls-14" transform="translate(-69.3 -184.7)"/>
  <path d="M399.4 739a3 3 0 0 1-2 2.2z" class="cls-14" transform="translate(-69.3 -184.7)"/>
  <path d="M393.7 745h2a3 3 0 0 1-2.1 2z" class="cls-11" transform="translate(-69.3 -184.7)"/>
</svg>
